<?xml version="1.0" encoding="UTF-8"?><svg id="Capa_1" xmlns="http://www.w3.org/2000/svg" xmlns:xlink="http://www.w3.org/1999/xlink" viewBox="0 0 466.31 155.27"><defs><style>.cls-1{fill:none;}.cls-2{clip-path:url(#clippath);}.cls-3{fill:#fff;}.cls-4{clip-path:url(#clippath-1);}</style><clipPath id="clippath"><rect class="cls-1" y="0" width="466.31" height="155.27"/></clipPath><clipPath id="clippath-1"><rect class="cls-1" y="0" width="466.31" height="155.27"/></clipPath></defs><g id="Ilustración_2"><g class="cls-2"><polygon class="cls-3" points="0 1 0 71.14 43.08 71.14 43.08 59.12 13.53 59.12 13.53 39.58 35.07 39.58 35.07 27.55 13.53 27.55 13.53 13.03 42.08 13.03 42.08 1 0 1"/><g class="cls-4"><path class="cls-3" d="M54.6,71.14V22.54h12.53v3.91c3.71-3.01,8.32-4.91,13.73-4.91,6.71,0,12.83,3.01,16.83,7.82,3.21,3.81,5.01,8.72,5.01,17.03v24.75h-13.03v-25.75c0-4.81-1.1-7.32-2.91-9.12-1.7-1.7-4.31-2.71-7.32-2.71-5.51,0-10.02,3.51-11.82,6.01v31.56h-13.03Z"/><rect class="cls-3" x="116.72" y="0" width="13.03" height="71.14"/><path class="cls-3" d="M191.37,70.14h-12.53v-3.91c-4.01,3.41-8.62,4.91-13.53,4.91-7.21,0-14.03-3.21-18.34-8.22-3.81-4.41-6.21-10.42-6.21-17.03,0-14.33,10.62-25.35,23.85-25.35,5.51,0,10.42,1.8,14.23,4.91v-3.91h12.53v48.6Zm-13.03-31.56c-2.71-3.61-7.01-6.01-12.02-6.01-7.62,0-12.53,6.31-12.53,13.33,0,7.62,5.51,13.23,12.83,13.23,4.91,0,9.22-2.41,11.72-6.01v-14.53Z"/><path class="cls-3" d="M250.48,60.22c-5.71,7.62-12.93,10.92-22.04,10.92-15.03,0-26.05-11.22-26.05-25.25s11.32-25.35,26.15-25.35c8.42,0,15.93,3.91,20.44,9.72l-9.22,8.12c-2.61-3.41-6.51-5.81-11.22-5.81-7.52,0-13.13,5.91-13.13,13.33s5.51,13.23,13.43,13.23c5.31,0,9.52-3.21,11.62-6.41l10.02,7.52Z"/><path class="cls-3" d="M301.87,62.42c-4.71,5.61-12.42,8.72-19.94,8.72-14.53,0-25.45-10.02-25.45-25.25,0-13.53,9.22-25.35,23.65-25.35,13.43,0,22.95,11.32,22.95,24.85,0,1.3-.1,2.61-.3,3.71h-33.67c.7,6.81,6.21,11.52,13.13,11.52,5.51,0,9.92-3.11,12.22-5.61l7.41,7.41Zm-12.12-22.84c-.4-4.31-4.31-8.52-9.62-8.52s-9.82,4.11-10.42,8.52h20.04Z"/><path class="cls-3" d="M125.56,148.05c-5.81-5.21-9.02-12.63-9.02-23.35v-40.58h13.53v41.58c0,6.41,1.7,10.32,4.61,13.03,3.01,2.91,7.21,4.51,11.92,4.51s8.92-1.6,11.92-4.51c2.91-2.71,4.61-6.61,4.61-13.03v-41.58h13.53v40.58c0,10.72-3.21,18.14-9.02,23.35-5.41,4.81-13.13,7.21-21.04,7.21s-15.63-2.41-21.04-7.21"/><path class="cls-3" d="M220.74,117.19c-.9-.3-2.8-.5-4.71-.5-5.71,0-10.22,4.11-11.82,7.01v30.56h-13.03v-48.6h12.53v4.91c2.91-3.61,8.22-5.91,14.13-5.91,1.9,0,3.01,.2,4.41,.4l-1.5,12.12Z"/><path class="cls-3" d="M232.26,154.27V83.13h13.03v26.05c3.81-3.01,8.42-4.51,13.73-4.51,13.23,0,23.85,11.02,23.85,25.35,0,6.61-2.41,12.62-6.21,17.03-4.31,5.01-11.12,8.22-18.34,8.22-4.91,0-9.52-1.5-13.53-4.91v3.91h-12.53Zm13.03-17.03c2.51,3.61,6.81,6.01,11.72,6.01,7.31,0,12.83-5.61,12.83-13.23,0-7.01-4.91-13.33-12.53-13.33-5.01,0-9.32,2.4-12.02,6.01v14.53Z"/><path class="cls-3" d="M341.47,154.27h-12.53v-3.91c-4.01,3.41-8.62,4.91-13.53,4.91-7.21,0-14.03-3.21-18.34-8.22-3.81-4.41-6.21-10.42-6.21-17.03,0-14.33,10.62-25.35,23.85-25.35,5.51,0,10.42,1.8,14.23,4.91v-3.91h12.53v48.6Zm-13.03-31.56c-2.7-3.61-7.01-6.01-12.02-6.01-7.61,0-12.53,6.31-12.53,13.33,0,7.62,5.51,13.23,12.83,13.23,4.91,0,9.22-2.41,11.72-6.01v-14.53Z"/><path class="cls-3" d="M356.49,154.27v-48.6h12.52v3.91c3.71-3.01,8.32-4.91,13.73-4.91,6.71,0,12.82,3.01,16.83,7.82,3.21,3.81,5.01,8.72,5.01,17.03v24.75h-13.03v-25.75c0-4.81-1.1-7.32-2.91-9.12-1.7-1.7-4.31-2.71-7.32-2.71-5.51,0-10.02,3.51-11.82,6.01v31.56h-13.03Z"/><path class="cls-3" d="M440.46,104.67c14.73,0,25.85,11.32,25.85,25.35s-11.12,25.25-25.85,25.25-25.85-11.22-25.85-25.25,11.12-25.35,25.85-25.35m0,38.58c7.61,0,12.83-5.91,12.83-13.23s-5.21-13.33-12.83-13.33-12.83,6.01-12.83,13.33,5.21,13.23,12.83,13.23"/><polygon class="cls-3" points="82.41 119.2 54.6 107.07 54.6 94.63 102.7 115.54 102.7 122.86 54.6 143.77 54.6 131.32 82.41 119.2"/></g></g></g></svg>